<svg width="95" height="23" viewBox="0 0 95 23" fill="none" xmlns="http://www.w3.org/2000/svg">
<path d="M21.1437 16.6388C20.7017 17.5927 20.1666 18.5007 19.5463 19.3495C18.5054 20.7911 17.0471 22.5778 15.2381 22.5945C13.6295 22.5945 13.2176 21.6427 11.0301 21.6539C8.84261 21.665 8.39175 22.6112 6.78314 22.6112C4.97415 22.6112 3.58819 20.9748 2.55289 19.5387C-0.347063 15.52 -0.647634 10.8055 1.13909 8.30074C2.31341 6.59341 4.22791 5.54425 6.29889 5.47314C8.2192 5.47314 9.42148 6.43052 11.0078 6.43052C12.5942 6.43052 13.4848 5.47314 15.7056 5.47314C17.5275 5.53133 19.2407 6.35359 20.4257 7.73856C16.2734 9.80916 16.9469 15.1972 21.1437 16.6388Z" fill="white"/>
<path d="M14.018 3.85397C14.9246 2.87519 15.3613 1.55089 15.2148 0.224854C13.7836 0.37012 12.4513 1.02147 11.4576 2.06167C10.645 2.96339 9.97146 4.28812 10.2331 5.6073C11.6877 5.59216 13.0659 4.95373 14.018 3.85397V3.85397Z" fill="white"/>
<path fill-rule="evenodd" clip-rule="evenodd" d="M25.8164 19.3597L29.9687 8.22744L32.0393 8.21631L36.2084 19.3486H34.2547L32.98 15.931H28.9557L27.7145 19.3597H25.8164ZM31.4407 11.6287C31.2515 11.0666 31.0956 10.5545 30.9565 10.0535C30.8062 10.6046 30.6503 11.1278 30.5 11.6065L29.3868 14.5788H32.5539L31.4407 11.6287Z" fill="white"/>
<path fill-rule="evenodd" clip-rule="evenodd" d="M38.6445 12.3959C39.3681 11.5298 40.4563 11.0537 41.5835 11.1101C42.6083 11.0955 43.5928 11.509 44.2997 12.2511C45.0238 13.062 45.4084 14.1202 45.374 15.2068C45.4277 16.412 44.9781 17.5854 44.1327 18.4462C43.3809 19.1552 42.383 19.5443 41.3497 19.5316C40.407 19.5685 39.4916 19.2116 38.8227 18.5464V22.5485H36.9691V13.9599C36.9691 12.8745 36.9524 12.112 36.9023 11.4218V11.2826H38.5722L38.6445 12.3959ZM43.5094 15.2901C43.5094 13.893 42.797 12.507 41.1271 12.507C40.1019 12.4848 39.1853 13.1427 38.8784 14.1212C38.8718 14.1681 38.8625 14.2145 38.8506 14.2604C38.8319 14.4043 38.8263 14.5496 38.8339 14.6945V16.0359C38.8288 16.2238 38.8513 16.4113 38.9007 16.5926C39.196 17.5411 40.0839 18.1792 41.077 18.1566C42.5688 18.1566 43.5094 17.0434 43.5094 15.2901Z" fill="white"/>
<path fill-rule="evenodd" clip-rule="evenodd" d="M48.1563 12.3959C48.8798 11.5298 49.968 11.0537 51.0952 11.1101C52.109 11.1021 53.0806 11.5153 53.778 12.2511C54.5062 13.0599 54.8931 14.1191 54.8579 15.2068C54.9104 16.4108 54.4632 17.583 53.6222 18.4462C52.8691 19.1532 51.872 19.542 50.8391 19.5316C49.8965 19.5685 48.981 19.2116 48.3121 18.5464V22.5485H46.4809V13.9599C46.4809 12.8745 46.4642 12.112 46.4141 11.4218V11.2826H48.0839L48.1563 12.3959ZM53.0191 15.2899C53.0191 13.8928 52.3066 12.5068 50.6368 12.5068H50.6479C49.6201 12.4893 48.705 13.1546 48.4048 14.1377C48.3982 14.1846 48.3889 14.231 48.3769 14.2768C48.3458 14.414 48.3272 14.5538 48.3213 14.6943V16.0524C48.3176 16.2398 48.3381 16.4269 48.3825 16.609C48.6783 17.5596 49.5692 18.1982 50.5644 18.1731C52.0784 18.1731 53.0191 17.0655 53.0191 15.2899Z" fill="white"/>
<path d="M63.0376 12.9404C61.3121 12.3337 60.7555 11.855 60.7555 10.97C60.7555 10.2241 61.4067 9.47269 62.8595 9.47269C63.613 9.45444 64.3592 9.62473 65.0302 9.96807L65.1861 10.0571L65.7093 8.6489L65.6036 8.59881C64.7658 8.19806 63.8431 8.00703 62.9151 8.04219C60.5551 8.04219 58.9075 9.31127 58.9075 11.1258C58.9075 12.5897 59.9372 13.6083 62.1526 14.343C63.7222 14.8997 64.3066 15.4229 64.3066 16.3636C64.3066 17.4267 63.4049 18.0835 61.9577 18.0835C61.0243 18.0878 60.1057 17.85 59.2916 17.3933L59.1302 17.3042L58.6348 18.7403L58.7238 18.7959C59.6942 19.283 60.7663 19.5329 61.852 19.5251C65.0302 19.5251 66.1546 17.7606 66.1546 16.2522C66.1546 14.7438 65.2529 13.7363 63.0376 12.9404Z" fill="white"/>
<path d="M69.4627 9.36743L67.6482 9.89065V11.2877H66.3457V12.6347H67.6704V16.7537C67.5964 17.5224 67.8261 18.2896 68.3105 18.8911C68.8011 19.3309 69.4446 19.5607 70.1028 19.5312C70.5872 19.5387 71.0697 19.4711 71.5333 19.3308L71.6335 19.2974L71.5445 17.9504L71.3719 18.0005C71.0901 18.0713 70.7995 18.1013 70.5092 18.0895C69.7911 18.0895 69.485 17.6777 69.485 16.7091V12.6347H71.7114V11.2877H69.485L69.4627 9.36743Z" fill="white"/>
<path fill-rule="evenodd" clip-rule="evenodd" d="M71.9062 15.3852C71.9062 12.8693 73.7152 11.1104 76.2979 11.1104C77.4352 11.0769 78.5403 11.4905 79.376 12.2626C80.1611 13.0514 80.5877 14.128 80.556 15.2405C80.556 18.1905 78.2739 19.532 76.1588 19.532C73.654 19.532 71.9062 17.9011 71.9062 15.3852ZM78.6688 15.2902C78.6688 13.9154 77.9174 12.4404 76.2476 12.4404C74.5388 12.4404 73.7706 13.8987 73.7929 15.3403C73.7929 16.999 74.8115 18.2013 76.2142 18.2013C77.6335 18.2013 78.6688 16.9601 78.6688 15.2902Z" fill="white"/>
<path d="M86.2335 11.189L86.1221 11.1612C85.9723 11.128 85.8192 11.1112 85.6657 11.1111C84.7037 11.1119 83.8166 11.6309 83.3446 12.4692L83.289 11.2892H81.6191V11.4284C81.6692 12.0963 81.6915 12.8477 81.6915 13.8552V19.3545H83.5395V15.063C83.5382 14.8449 83.555 14.6271 83.5895 14.4118C83.7277 13.4409 84.557 12.7182 85.5377 12.7141C85.7269 12.7141 85.8717 12.7141 86.0331 12.742H86.2279L86.2335 11.189Z" fill="white"/>
<path fill-rule="evenodd" clip-rule="evenodd" d="M86.2109 15.451C86.2109 12.8851 87.9309 11.0928 90.3911 11.0928C93.1018 11.0928 94.0592 13.1467 94.0202 14.8833C94.0268 15.1202 94.0081 15.3572 93.9645 15.5902V15.696H87.9977C88.1257 17.8946 89.9792 18.1395 90.7807 18.1395C91.5715 18.163 92.3594 18.0345 93.1018 17.761L93.2521 17.7053L93.6083 18.9577L93.497 19.0078C92.5624 19.3622 91.5685 19.5341 90.5692 19.5143C87.9197 19.5143 86.2109 17.9224 86.2109 15.451ZM91.6258 12.8477C91.2506 12.5216 90.7643 12.3522 90.2676 12.3746C89.1231 12.4003 88.1787 13.2778 88.069 14.4174H92.2826C92.2771 13.8284 92.0413 13.265 91.6258 12.8477Z" fill="white"/>
<path fill-rule="evenodd" clip-rule="evenodd" d="M27.592 0.513921C26.9986 0.514396 26.4057 0.549708 25.8164 0.619677V5.8073C26.3215 5.85358 26.8287 5.87402 27.336 5.86853C28.3432 5.9351 29.3444 5.66915 30.1858 5.11154C30.7916 4.60657 31.1322 3.85154 31.1098 3.06321C31.1448 2.31557 30.8018 1.60036 30.1969 1.15959C29.4206 0.669942 28.5071 0.443527 27.592 0.513921ZM27.4999 5.28698C27.22 5.30298 26.9394 5.30298 26.6594 5.28698V1.09569C26.9817 1.04617 27.3075 1.02382 27.6335 1.0289C29.3868 1.0289 30.2329 1.80259 30.2329 3.06053C30.2329 4.47433 29.27 5.28698 27.4999 5.28698Z" fill="white"/>
<path fill-rule="evenodd" clip-rule="evenodd" d="M31.8633 3.96237C31.8633 5.15909 32.8485 5.91052 34.0897 5.91052C35.1863 5.91052 36.3774 5.29824 36.3774 3.89001C36.3774 2.74339 35.42 1.953 34.151 1.953C32.8819 1.953 31.8633 2.76566 31.8633 3.96237ZM35.131 4.95211C34.8677 5.23229 34.5005 5.39156 34.116 5.3924L34.1105 5.36457C33.73 5.36827 33.365 5.21412 33.1024 4.93882C32.8397 4.66352 32.7029 4.29169 32.7245 3.91181C32.6562 3.37264 32.9054 2.84252 33.3643 2.55124C33.8231 2.25996 34.4089 2.25996 34.8678 2.55124C35.3266 2.84252 35.5759 3.37264 35.5076 3.91181C35.5305 4.29562 35.3943 4.67194 35.131 4.95211Z" fill="white"/>
<path d="M37.7349 2.01587L38.3528 3.93062C38.4808 4.35364 38.6032 4.74884 38.6867 5.13846H38.7146C38.8203 4.75997 38.9762 4.35364 39.1264 3.93618L39.8556 2.01587H40.5625L41.2805 3.90278C41.4379 4.30716 41.5735 4.71964 41.6869 5.13846H41.7203C41.8098 4.72293 41.9269 4.31384 42.0709 3.91392L42.7444 2.01587H43.5738L42.0876 5.79527H41.3251L40.6182 3.99184C40.4584 3.58211 40.3209 3.16404 40.2063 2.73947V2.73947C40.0974 3.16822 39.9578 3.58861 39.7888 3.99741L39.043 5.79527H38.2804L36.8555 2.01587H37.7349Z" fill="white"/>
<path d="M44.4179 3.06012C44.4179 2.65936 44.4179 2.34766 44.3789 2.03596H45.1248L45.1749 2.65379V2.65379C45.5337 2.1788 46.1056 1.91374 46.7 1.9469C47.1356 1.91709 47.5628 2.07677 47.8721 2.38495C48.1813 2.69314 48.3425 3.11983 48.3142 3.55551V5.81535H47.4737V3.63343C47.5119 3.33606 47.4133 3.03738 47.2057 2.8211C46.9981 2.60481 46.7037 2.49418 46.405 2.52021C45.9267 2.51462 45.4901 2.79182 45.2918 3.22711C45.2525 3.32817 45.2336 3.43599 45.2361 3.54437V5.82649H44.4179V3.06012Z" fill="white"/>
<path d="M49.6914 0.267822H50.5375V5.83395H49.697L49.6914 0.267822Z" fill="white"/>
<path fill-rule="evenodd" clip-rule="evenodd" d="M51.5801 3.96237C51.5801 5.15909 52.5653 5.91052 53.8065 5.91052H53.801C54.8975 5.91052 56.0942 5.29824 56.0942 3.89001C56.0942 2.74339 55.1368 1.953 53.8678 1.953C52.5987 1.953 51.5801 2.76566 51.5801 3.96237ZM54.8539 4.95894C54.5883 5.23823 54.2192 5.3954 53.8338 5.39327V5.371C53.4537 5.3748 53.0892 5.22049 52.8275 4.94499C52.5657 4.66948 52.4302 4.29757 52.4534 3.91824C52.4062 3.39138 52.6606 2.88306 53.1107 2.60506C53.5607 2.32706 54.1291 2.32706 54.5791 2.60506C55.0292 2.88306 55.2836 3.39138 55.2364 3.91824C55.2579 4.30305 55.1195 4.67965 54.8539 4.95894Z" fill="white"/>
<path fill-rule="evenodd" clip-rule="evenodd" d="M60.478 5.81588C60.4311 5.51578 60.4087 5.21234 60.4112 4.9086L60.4224 3.46141C60.4224 2.70441 60.0828 1.91402 58.6579 1.91402C58.1314 1.90834 57.6103 2.02055 57.1328 2.24243L57.322 2.70441C57.698 2.51425 58.1141 2.41691 58.5355 2.42054C59.4817 2.41498 59.5819 2.98829 59.5819 3.29999V3.37791C57.7896 3.36678 56.7988 3.86773 56.7988 4.78614C56.7988 5.34276 57.2775 5.89937 58.2071 5.89937C58.7361 5.92367 59.2504 5.7212 59.6209 5.34276H59.6487L59.7266 5.81588H60.478ZM57.6394 4.74206C57.6394 4.00733 58.6747 3.88487 59.5931 3.88487L59.5709 4.54168C59.5716 4.61764 59.5584 4.6931 59.5319 4.76432C59.3175 5.1753 58.8814 5.4217 58.4187 5.39329C58.0012 5.39329 57.6394 5.19291 57.6394 4.74206Z" fill="white"/>
<path fill-rule="evenodd" clip-rule="evenodd" d="M65.744 4.84318V0.267822L64.8868 0.284521V2.51097C64.537 2.11601 64.021 1.90963 63.4953 1.95436C62.9452 1.92775 62.409 2.1319 62.0159 2.51759C61.6228 2.90328 61.4085 3.43552 61.4247 3.98599C61.4132 4.51 61.6202 5.01517 61.996 5.38047C62.3719 5.74577 62.8828 5.93828 63.4062 5.91187C64.0364 5.96582 64.6476 5.67936 65.0093 5.16045V5.81725H65.783C65.744 5.56121 65.744 5.17714 65.744 4.84318ZM64.8638 3.27886C64.8931 3.37434 64.9063 3.47405 64.9028 3.57387V4.23623C64.9074 4.33793 64.8942 4.43965 64.8638 4.53681C64.6799 5.05163 64.1796 5.38442 63.6337 5.35503C63.2576 5.37415 62.8916 5.22953 62.6301 4.95846C62.3686 4.6874 62.2373 4.31643 62.27 3.94123C62.2397 3.55916 62.3736 3.18229 62.6382 2.90498C62.9027 2.62767 63.2729 2.47619 63.656 2.48847C64.1895 2.45404 64.6817 2.77613 64.8638 3.27886Z" fill="white"/>
<path fill-rule="evenodd" clip-rule="evenodd" d="M68.8125 3.96237C68.8125 5.15909 69.7977 5.91052 71.0389 5.91052C72.1355 5.91052 73.3266 5.29824 73.3266 3.89001C73.3266 2.74339 72.3693 1.953 71.1002 1.953C69.8311 1.953 68.8125 2.76566 68.8125 3.96237ZM72.0857 4.95894C71.8201 5.23823 71.4509 5.3954 71.0655 5.39327V5.371C70.686 5.37315 70.3225 5.21833 70.0611 4.94321C69.7997 4.66809 69.6636 4.29714 69.6851 3.91824C69.638 3.39138 69.8924 2.88306 70.3424 2.60506C70.7924 2.32706 71.3609 2.32706 71.8109 2.60506C72.2609 2.88306 72.5154 3.39138 72.4682 3.91824C72.4897 4.30305 72.3513 4.67965 72.0857 4.95894Z" fill="white"/>
<path d="M74.3964 3.0599C74.4027 2.71064 74.3896 2.3613 74.3574 2.01347H75.1033L75.1534 2.63131V2.63131C75.5216 2.15785 76.1027 1.9007 76.7008 1.94667C77.1391 1.91177 77.571 2.0692 77.8841 2.378C78.1972 2.68681 78.3605 3.11648 78.3316 3.55528V5.81513H77.4911V3.63321C77.5291 3.33688 77.4312 3.03927 77.2249 2.82322C77.0186 2.60717 76.7258 2.49575 76.428 2.51998C75.9497 2.51439 75.5132 2.7916 75.3148 3.22688C75.2782 3.32868 75.2594 3.43599 75.2591 3.54415V5.82626H74.4186L74.3964 3.0599Z" fill="white"/>
<path d="M82.7204 1.13037V2.01538H83.9338V2.572H82.7316V4.6092C82.7316 5.08232 82.893 5.34393 83.3605 5.34393C83.525 5.34788 83.6893 5.33294 83.8504 5.2994L83.8893 5.82261C83.6459 5.88639 83.3951 5.9182 83.1435 5.91724C82.816 5.93343 82.4938 5.83062 82.2362 5.6278C81.9933 5.35584 81.8761 4.99419 81.9133 4.63146V2.572H81.1953V2.01538H81.9133V1.34188L82.7204 1.13037Z" fill="white"/>
<path d="M84.8708 0.267822H85.7113V2.62786V2.62786C85.8633 2.41421 86.0713 2.24664 86.3124 2.14361C86.5797 2.01458 86.8728 1.94797 87.1696 1.94879C87.6073 1.91861 88.0365 2.07975 88.3461 2.39049C88.6558 2.70122 88.8155 3.13099 88.7838 3.56853V5.79498H87.9433V3.62419C87.9815 3.32682 87.883 3.02815 87.6753 2.81186C87.4677 2.59558 87.1733 2.48495 86.8746 2.51097C86.4014 2.50139 85.9663 2.76901 85.7614 3.1956C85.7154 3.29861 85.6962 3.41159 85.7057 3.524V5.80611H84.8652L84.8708 0.267822Z" fill="white"/>
<path fill-rule="evenodd" clip-rule="evenodd" d="M92.1893 5.35636C91.3544 5.35636 90.6141 4.97786 90.6141 4.04832L93.8759 4.05389C93.8897 3.94486 93.8897 3.83451 93.8759 3.72549C93.8945 3.22673 93.6963 2.74435 93.3323 2.40281C92.9684 2.06128 92.4744 1.89407 91.9778 1.94433C91.4111 1.90025 90.8522 2.09759 90.4387 2.48769C90.0253 2.87778 89.7959 3.42435 89.807 3.99266C89.807 5.12258 90.6642 5.89627 92.078 5.89627C92.6019 5.90558 93.1234 5.82462 93.6198 5.65693L93.4695 5.17268C93.056 5.3048 92.6233 5.36688 92.1893 5.35636ZM92.7463 2.73089C92.9676 2.9447 93.0848 3.24429 93.0673 3.55151H90.6238C90.6962 2.89949 91.2595 2.41386 91.9151 2.43828C92.2216 2.41026 92.525 2.51708 92.7463 2.73089Z" fill="white"/>
</svg>
