<svg width="22" height="23" viewBox="0 0 22 23" fill="none" xmlns="http://www.w3.org/2000/svg">
<path d="M21.1437 16.6388C20.7017 17.5927 20.1666 18.5007 19.5463 19.3495C18.5054 20.7911 17.0471 22.5778 15.2381 22.5945C13.6295 22.5945 13.2176 21.6427 11.0301 21.6539C8.84261 21.665 8.39175 22.6112 6.78314 22.6112C4.97415 22.6112 3.58819 20.9748 2.55289 19.5387C-0.347063 15.52 -0.647634 10.8055 1.13909 8.30074C2.31341 6.59341 4.22791 5.54425 6.29889 5.47314C8.2192 5.47314 9.42148 6.43052 11.0078 6.43052C12.5942 6.43052 13.4848 5.47314 15.7056 5.47314C17.5275 5.53133 19.2407 6.35359 20.4257 7.73856C16.2734 9.80916 16.9469 15.1972 21.1437 16.6388Z" fill="white"/>
<path d="M14.018 3.85397C14.9246 2.87519 15.3613 1.55089 15.2148 0.224854C13.7836 0.37012 12.4513 1.02147 11.4576 2.06167C10.645 2.96339 9.97146 4.28812 10.2331 5.6073C11.6877 5.59216 13.0659 4.95373 14.018 3.85397Z" fill="white"/>
</svg>
