<svg width="32" height="32" viewBox="0 0 32 32" fill="none" xmlns="http://www.w3.org/2000/svg">
<g filter="url(#filter0_b)">
<path d="M0 16C0 7.16344 7.16344 0 16 0V0C24.8366 0 32 7.16344 32 16V16C32 24.8366 24.8366 32 16 32V32C7.16344 32 0 24.8366 0 16V16Z" fill="#BCBABA"/>
</g>
<path d="M16 7C11.03 7 7 11.03 7 16C7 20.97 11.03 25 16 25C16.83 25 17.5 24.33 17.5 23.5C17.5 23.11 17.35 22.76 17.11 22.49C16.88 22.23 16.73 21.88 16.73 21.5C16.73 20.67 17.4 20 18.23 20H20C22.76 20 25 17.76 25 15C25 10.58 20.97 7 16 7ZM10.5 16C9.67 16 9 15.33 9 14.5C9 13.67 9.67 13 10.5 13C11.33 13 12 13.67 12 14.5C12 15.33 11.33 16 10.5 16ZM13.5 12C12.67 12 12 11.33 12 10.5C12 9.67 12.67 9 13.5 9C14.33 9 15 9.67 15 10.5C15 11.33 14.33 12 13.5 12ZM18.5 12C17.67 12 17 11.33 17 10.5C17 9.67 17.67 9 18.5 9C19.33 9 20 9.67 20 10.5C20 11.33 19.33 12 18.5 12ZM21.5 16C20.67 16 20 15.33 20 14.5C20 13.67 20.67 13 21.5 13C22.33 13 23 13.67 23 14.5C23 15.33 22.33 16 21.5 16Z" fill="#323232"/>
<defs>
<filter id="filter0_b" x="-370" y="-370" width="772" height="772" filterUnits="userSpaceOnUse" color-interpolation-filters="sRGB">
<feFlood flood-opacity="0" result="BackgroundImageFix"/>
<feGaussianBlur in="BackgroundImage" stdDeviation="185"/>
<feComposite in2="SourceAlpha" operator="in" result="effect1_backgroundBlur"/>
<feBlend mode="normal" in="SourceGraphic" in2="effect1_backgroundBlur" result="shape"/>
</filter>
</defs>
</svg>
