<svg width="99" height="27" viewBox="0 0 99 27" fill="none" xmlns="http://www.w3.org/2000/svg">
<path d="M16.7335 12.4397L11.724 9.80691L2.06674 4.7306C1.55466 4.45786 0.998047 4.61928 0.998047 5.20929V25.8986C0.998047 26.3439 1.38211 26.5331 1.8441 26.2882L11.7295 21.0894L16.739 18.4567L21.5537 15.9296C22.1104 15.6291 22.0658 15.2227 21.5871 14.989C21.1085 14.7552 16.7335 12.4397 16.7335 12.4397Z" fill="#CBCBCA"/>
<path d="M0.998047 4.24817V15.4528V26.6518L13.4049 15.4528L0.998047 4.24817V4.24817Z" fill="white"/>
<path d="M16.7335 12.4408L11.7295 9.80804L0.998047 4.16956V4.24748L13.4049 15.4521L16.7335 12.4408V12.4408Z" fill="#CBCBCA"/>
<path d="M0.998047 26.6517V26.7352L11.7295 21.0911L16.7335 18.4583L13.4049 15.4526L0.998047 26.6517V26.6517Z" fill="#CBCBCA"/>
<path d="M16.7348 12.442L13.4062 15.4533L16.7348 18.459L22.4568 15.4533L16.7348 12.442V12.442Z" fill="white"/>
<path fill-rule="evenodd" clip-rule="evenodd" d="M77.8234 19.5927C78.2279 19.7573 78.6614 19.8387 79.0981 19.832C79.9251 19.8718 80.7268 19.5413 81.2856 18.9303C81.8403 18.2263 82.1158 17.3423 82.0593 16.4478C82.1125 15.552 81.8374 14.6674 81.2856 13.9598C80.7212 13.3518 79.9151 13.0274 79.0869 13.0747C78.6503 13.0687 78.217 13.1501 77.8123 13.3141C77.4361 13.4818 77.1073 13.74 76.8549 14.0655H76.7993L76.649 13.1749H75.7695V22.6373H76.8549V19.9545C76.8525 19.5932 76.8265 19.2325 76.777 18.8746H76.8549C77.1107 19.1933 77.4442 19.4406 77.8234 19.5927ZM77.3393 14.4784C77.7629 14.0726 78.3413 13.8696 78.9256 13.9218C79.4954 13.8934 80.0448 14.1372 80.4062 14.5786C80.7895 15.1238 80.9742 15.7839 80.9294 16.4488C80.9697 17.1168 80.7855 17.779 80.4062 18.3302C80.0635 18.7828 79.5207 19.0386 78.9534 19.0148C78.3541 19.0706 77.7614 18.854 77.3393 18.4248C76.9531 17.8462 76.7764 17.1529 76.8383 16.46V16.2373C76.7898 15.61 76.9675 14.986 77.3393 14.4784Z" fill="white"/>
<path d="M84.5795 19.7104H83.4941V10.4595H84.5795V19.7104Z" fill="white"/>
<path fill-rule="evenodd" clip-rule="evenodd" d="M90.6136 18.7865L90.8084 19.7104L91.6322 19.7438V15.2909C91.6908 14.6694 91.4634 14.0549 91.0144 13.6211C90.4612 13.2331 89.79 13.05 89.1163 13.1035C88.6926 13.104 88.2704 13.1544 87.8584 13.2537C87.4567 13.3479 87.0666 13.4861 86.6951 13.6656L87.029 14.4226C87.6625 14.1173 88.3524 13.9467 89.0551 13.9217C89.4747 13.8838 89.8919 14.0162 90.2129 14.289C90.4746 14.5984 90.6045 14.9981 90.5747 15.4023V15.8086L89.3613 15.842C87.0495 15.9051 85.8936 16.5953 85.8936 17.9126C85.862 18.4547 86.0866 18.9802 86.5003 19.3319C86.9798 19.6917 87.5717 19.8693 88.1701 19.8329C88.6233 19.8464 89.075 19.7727 89.5004 19.6158C89.9137 19.4246 90.2775 19.1409 90.5635 18.7865H90.6136ZM89.978 18.5131C89.5261 18.8684 88.96 19.0465 88.3861 19.014C88.0319 19.0374 87.6805 18.9392 87.3897 18.7357C87.1458 18.5389 87.0129 18.2358 87.0335 17.9231C87.0083 17.5078 87.2251 17.1153 87.5901 16.9156C88.1758 16.6535 88.8134 16.5279 89.4548 16.5482L90.5346 16.5093V17.0937C90.5695 17.6261 90.3655 18.1464 89.978 18.5131Z" fill="white"/>
<path d="M92.2383 13.1989H93.396L94.9601 16.9115C95.2174 17.5075 95.4313 18.1214 95.6002 18.7483H95.6559C95.7115 18.5479 95.8284 18.2028 96.0065 17.713C96.1847 17.2232 96.7765 15.7185 97.7821 13.1989H98.9622L95.873 20.6018C95.6613 21.2069 95.2925 21.7448 94.8043 22.1603C94.3706 22.4768 93.8436 22.6394 93.307 22.6223C92.9779 22.6223 92.6496 22.5887 92.3273 22.5221V21.7484C92.5938 21.7952 92.8639 21.8175 93.1344 21.8152C93.8517 21.8333 94.4971 21.3819 94.7263 20.702L95.1215 19.778L92.2383 13.1989Z" fill="white"/>
<path fill-rule="evenodd" clip-rule="evenodd" d="M59.0251 13.7994C59.663 14.1993 60.0612 14.8894 60.0882 15.6418C60.0882 16.6492 59.4593 17.1279 58.8303 17.5788C58.5975 17.7279 58.4426 17.9725 58.4073 18.2467C58.4402 18.4841 58.5851 18.6911 58.7969 18.8033L59.3535 19.1818C60.0159 19.6883 60.6115 20.1503 60.6115 21.091C60.6115 22.3712 59.2478 23.6681 56.6762 23.6681C54.5054 23.6681 53.459 22.7274 53.459 21.72C53.4988 20.9911 53.9439 20.346 54.6112 20.0501C55.5085 19.643 56.4813 19.4287 57.4666 19.4212C57.205 19.1818 57.0456 18.8509 57.0213 18.4972C57.0217 18.3017 57.0735 18.1097 57.1716 17.9406H56.6929C55.1066 17.9406 54.2048 16.8663 54.2048 15.8032C54.2297 15.0807 54.582 14.4088 55.1622 13.9775C55.9509 13.4417 56.8929 13.1779 57.8451 13.2261H60.9232L59.9658 13.7159L59.0251 13.7994ZM57.9612 19.8549C57.8463 19.8459 57.731 19.8459 57.6161 19.8549C57.0872 19.8549 56.5602 19.9184 56.0465 20.0441C55.7181 20.1554 54.7607 20.4838 54.7607 21.4523C54.7607 22.4208 55.7904 23.1222 57.3935 23.1222C58.8295 23.1222 59.6199 22.4932 59.6199 21.6527C59.5921 20.9569 59.0967 20.6007 57.9612 19.8549ZM58.7693 16.2708C58.793 16.6393 58.6571 17.0002 58.3963 17.2616C58.1125 17.5053 57.7518 17.6413 57.3777 17.6456C56.0641 17.6456 55.5075 16.1317 55.5075 15.2188C55.4721 14.8369 55.6026 14.4583 55.8657 14.1792C56.1287 13.9002 56.4991 13.7477 56.8823 13.7605C58.1236 13.7605 58.7693 15.2856 58.7693 16.2708Z" fill="white"/>
<path fill-rule="evenodd" clip-rule="evenodd" d="M45.957 16.4212C45.957 17.963 47.2317 19.6328 49.6028 19.6328C52.0408 19.6328 53.4212 17.9686 53.4212 16.3266C53.4212 14.6846 52.1466 13.1205 49.8533 13.1205C47.5601 13.1205 45.957 14.64 45.957 16.4212ZM51.9164 17.0104C51.9495 17.5499 51.7919 18.0838 51.4711 18.5188V18.53C51.0917 18.9774 50.5326 19.2324 49.946 19.2257C48.137 19.2257 47.4079 17.0104 47.4079 15.6634C47.3518 15.0287 47.607 14.4063 48.0925 13.9936C48.4769 13.692 48.951 13.5275 49.4395 13.526C51.293 13.526 51.9164 15.8137 51.9164 17.0104Z" fill="white"/>
<path fill-rule="evenodd" clip-rule="evenodd" d="M37.8574 16.4212C37.8574 17.963 39.1321 19.6328 41.5032 19.6328C43.9412 19.6328 45.3216 17.9686 45.3216 16.3266C45.3216 14.6846 44.047 13.1205 41.7537 13.1205C39.4605 13.1205 37.8574 14.64 37.8574 16.4212ZM43.8241 17.0104C43.8551 17.5505 43.6956 18.0843 43.3733 18.5188V18.53C42.9938 18.9774 42.4348 19.2324 41.8482 19.2257C40.0392 19.2257 39.31 17.0104 39.31 15.6634C39.254 15.0287 39.5092 14.4063 39.9946 13.9936C40.379 13.692 40.8531 13.5275 41.3416 13.526C43.1952 13.526 43.8241 15.8137 43.8241 17.0104Z" fill="white"/>
<path d="M36.7146 19.4199L34.5661 19.8707C33.7471 20.0074 32.9193 20.0856 32.0892 20.1045C27.9424 20.1045 26.3672 17.3215 26.3672 15.1507C26.3672 12.5012 28.5936 10.0354 32.4343 10.0354C33.2095 10.0373 33.9816 10.1346 34.7331 10.3248C35.4395 10.4843 36.1109 10.771 36.7146 11.1709L35.4678 12.2507L34.9446 12.362L35.3175 11.8054C34.464 10.9615 33.306 10.4979 32.1059 10.5197C31.0074 10.4622 29.9345 10.8645 29.1447 11.63C28.3548 12.3956 27.9192 13.4554 27.9424 14.5551C27.9424 17.1266 29.9852 19.5646 33.2636 19.5646C33.9151 19.581 34.563 19.4635 35.1672 19.2195V17.0153L32.9018 17.1211L34.1041 16.5311H37.2879L36.8983 16.8762C36.819 16.9233 36.7642 17.0025 36.748 17.0932C36.748 17.2157 36.7146 17.6165 36.7146 17.7501V19.4199Z" fill="white"/>
<path d="M63.7737 19.0254C63.2783 18.9864 63.1725 18.903 63.1725 18.3686V10.6261C63.1753 10.5984 63.1753 10.5704 63.1725 10.5426C63.2338 10.0639 63.384 9.98602 63.8516 9.72998H61.7031L60.5898 10.2254H61.7365V18.6692C61.7365 18.9475 61.6752 18.9864 61.3301 19.3983H63.9907L64.5474 19.0978L63.7737 19.0254Z" fill="white"/>
<path fill-rule="evenodd" clip-rule="evenodd" d="M69.7177 19.2409C69.7727 19.2118 69.8282 19.1825 69.8842 19.1545L70.6746 18.4866C70.1119 18.781 69.4893 18.9428 68.8545 18.9597C67.3041 18.9168 66.0084 17.7667 65.782 16.2323L66.9286 16.1488L70.4464 14.8463C70.2865 14.2811 69.9133 13.8002 69.4055 13.5049C68.9336 13.2453 68.4023 13.113 67.8637 13.1208C66.3275 13.1208 64.4517 14.1561 64.4517 16.2601C64.4354 17.1821 64.801 18.0699 65.462 18.7129C66.123 19.356 67.0204 19.6971 67.9417 19.6554C68.4379 19.6643 68.9311 19.5774 69.3944 19.3994C69.5016 19.355 69.6088 19.2984 69.7177 19.2409ZM68.9149 14.7381C68.9149 14.9274 68.7646 15.0109 68.4807 15.1055L65.7644 16.1798C65.7199 15.9293 65.7199 15.6899 65.7199 15.4562C65.6797 14.9744 65.8415 14.4976 66.1666 14.1398C66.4917 13.7819 66.9509 13.5753 67.4343 13.5693C68.1504 13.5347 68.7823 14.0335 68.9149 14.7381Z" fill="white"/>
<path d="M71.3281 13.2152V14.112H71.2056V13.2152H70.877V13.1205H71.6512V13.2152H71.3281Z" fill="white"/>
<path d="M72.6692 14.112V13.2096V13.2096L72.3629 14.112H72.2459L71.9395 13.2096V13.2096V14.112H71.8281V13.1205H72.0175L72.2905 13.9226V13.9226L72.5634 13.1205H72.8029V14.112H72.6692Z" fill="white"/>
<path fill-rule="evenodd" clip-rule="evenodd" d="M30.1369 4.79195H31.4004C31.1724 3.99745 30.8935 3.21844 30.5655 2.45974C30.2348 1.6964 29.9559 0.911657 29.7306 0.11084H28.2389C27.993 0.927655 27.6841 1.72415 27.3149 2.49314C26.9679 3.24244 26.6613 4.00981 26.3965 4.79195H27.5821C27.656 4.3305 27.7811 3.87871 27.955 3.44495H29.7751C29.9395 3.88105 30.0606 4.3322 30.1369 4.79195ZM28.9001 0.785999C29.0862 1.46624 29.3111 2.13527 29.5737 2.7898H28.1376C28.4057 2.1356 28.6362 1.46657 28.8278 0.785999H28.9001Z" fill="white"/>
<path d="M36.4878 4.79195H35.5081C35.2058 4.23482 34.8437 3.71224 34.4283 3.23344C33.9005 2.62422 33.4636 1.94179 33.1314 1.20737H33.0702C33.1289 1.67828 33.1605 2.15218 33.1648 2.62673C33.1648 3.2223 33.1648 3.94033 33.2205 4.79195H32.252C32.2909 4.04609 32.3132 3.23344 32.3132 2.34286C32.3132 1.45228 32.3132 0.72868 32.252 0.116406H33.4208C33.6753 0.662945 34.003 1.17229 34.3949 1.63039C34.8698 2.21679 35.2699 2.85998 35.5861 3.54514H35.6417C35.5831 3.06862 35.5515 2.58917 35.5471 2.10908C35.5471 1.46341 35.5471 0.795473 35.4914 0.11084H36.4822C36.4432 0.706415 36.4265 1.45228 36.4265 2.33729C36.4265 3.2223 36.4488 4.06279 36.4878 4.79195Z" fill="white"/>
<path fill-rule="evenodd" clip-rule="evenodd" d="M41.4712 4.07639C41.9361 3.60063 42.1942 2.96043 42.1892 2.29523C42.1917 1.72105 41.9607 1.17053 41.5491 0.770117C40.9769 0.283186 40.2321 0.0483071 39.4841 0.11888H39.0444H38.5379H37.8477C37.8978 0.731154 37.8978 1.43805 37.8978 2.34533C37.8978 3.25261 37.8811 4.07083 37.8477 4.79442C38.5323 4.83895 39.0666 4.83895 39.4563 4.83895C40.2057 4.88235 40.9383 4.60511 41.4712 4.07639ZM40.6697 1.27912C40.9606 1.59581 41.1181 2.01251 41.1094 2.44244H41.1261C41.1347 2.87101 40.984 3.28751 40.7031 3.61133C40.3794 3.9558 39.9163 4.13404 39.4452 4.09558C39.2733 4.09519 39.1018 4.07842 38.9331 4.04549C38.8941 3.48331 38.8941 2.86547 38.8941 2.34225C38.8941 2.07483 38.884 1.81322 38.874 1.55743C38.8645 1.31276 38.8552 1.07342 38.8552 0.839398C39.0555 0.811568 39.2058 0.811568 39.3227 0.811568C39.8173 0.772377 40.3058 0.941919 40.6697 1.27912Z" fill="white"/>
<path fill-rule="evenodd" clip-rule="evenodd" d="M46.3065 4.79195H47.4754C47.2521 4.20007 46.9822 3.62682 46.6683 3.07758C46.5149 2.8109 46.2664 2.61206 45.9725 2.52097V2.46531C46.5582 2.33822 46.9784 1.82334 46.9856 1.22406C46.9856 0.489336 46.3844 0.11084 45.1766 0.11084H44.4808H43.9854H43.3008C43.3509 0.723113 43.3509 1.43001 43.3509 2.33729C43.3509 3.24457 43.3342 4.06279 43.3008 4.78638H44.414C44.3806 4.15741 44.3806 3.53401 44.3806 2.92173H44.8203C45.1144 2.89475 45.4043 3.00579 45.6052 3.2223C45.9103 3.71062 46.1463 4.23886 46.3065 4.79195ZM44.9854 0.77099C45.6589 0.77099 45.9929 1.01033 45.9929 1.48902C45.9929 2.0178 45.5754 2.28498 44.7405 2.27384H44.3732C44.3732 1.67827 44.362 1.19402 44.3286 0.826651C44.5455 0.789144 44.7653 0.770521 44.9854 0.77099Z" fill="white"/>
<path fill-rule="evenodd" clip-rule="evenodd" d="M52.3897 4.19713C52.882 3.71731 53.1505 3.05303 53.13 2.36588C53.1514 1.72543 52.8958 1.1068 52.4286 0.668209C51.9582 0.225908 51.3319 -0.012225 50.6864 0.0058405C50.007 -0.00809158 49.3507 0.252817 48.8663 0.729437C48.3559 1.20866 48.0744 1.88305 48.0926 2.58296C48.0792 3.2138 48.3341 3.82071 48.794 4.25279C49.2628 4.69818 49.8897 4.93852 50.5362 4.92073C51.2271 4.94381 51.8972 4.68222 52.3897 4.19713ZM51.6495 1.25426C51.9194 1.60071 52.0504 2.03535 52.0169 2.47324H52.0447C52.0641 2.90371 51.9233 3.3261 51.6495 3.65882C51.4196 3.9547 51.0668 4.12902 50.6921 4.13194C50.2932 4.13723 49.9123 3.96613 49.6513 3.66439C49.3589 3.32747 49.2075 2.89098 49.2282 2.44541C49.212 2.01445 49.3546 1.59252 49.629 1.25982C49.8648 0.959121 50.2265 0.784445 50.6086 0.786703C51.0076 0.781415 51.3885 0.952522 51.6495 1.25426Z" fill="white"/>
<path d="M55.3632 4.79456H54.25C54.2834 4.0487 54.3001 3.23605 54.3001 2.34547C54.3001 1.45489 54.3001 0.731292 54.25 0.119019H55.3632C55.3298 0.725726 55.3131 1.46602 55.3131 2.34547C55.3131 3.22492 55.3298 4.0654 55.3632 4.79456Z" fill="white"/>
<path fill-rule="evenodd" clip-rule="evenodd" d="M60.3924 4.0764C60.8573 3.60063 61.1154 2.96043 61.1104 2.29523C61.0978 1.71288 60.8462 1.16136 60.4147 0.770117C59.8424 0.283186 59.0977 0.0483071 58.3496 0.11888H57.9155H57.4089H56.7188C56.7688 0.731154 56.7688 1.43805 56.7688 2.34533C56.7688 3.25261 56.7521 4.07083 56.7188 4.79443C57.4034 4.83895 57.9377 4.83895 58.3274 4.83895C59.0938 4.89704 59.8476 4.61868 60.3924 4.0764ZM59.5585 1.27838C59.8494 1.59507 60.0069 2.01177 59.9982 2.4417C60.0114 2.86808 59.8667 3.28433 59.5919 3.61059C59.2681 3.95505 58.8051 4.1333 58.3339 4.09484C58.162 4.09501 57.9905 4.07823 57.8219 4.04474C57.7829 3.48257 57.7829 2.86473 57.7829 2.34151C57.7829 2.07409 57.7727 1.81248 57.7628 1.55669C57.7533 1.31202 57.7439 1.07268 57.7439 0.838656C57.9388 0.810826 58.0946 0.810826 58.2059 0.810826C58.7023 0.770735 59.1928 0.940294 59.5585 1.27838Z" fill="white"/>
<path fill-rule="evenodd" clip-rule="evenodd" d="M67.4084 4.79195H68.6663C68.442 3.997 68.1649 3.21787 67.837 2.45974C67.5063 1.6964 67.2274 0.911657 67.0021 0.11084H65.5104C65.2645 0.927655 64.9556 1.72415 64.5864 2.49314C64.2394 3.24244 63.9328 4.00981 63.668 4.79195H64.8536C64.9275 4.3305 65.0526 3.87871 65.2265 3.44495H67.0466C67.2109 3.88105 67.3321 4.3322 67.4084 4.79195ZM66.1706 0.785999C66.3567 1.46624 66.5815 2.13527 66.8441 2.7898H65.408C65.6837 2.13607 65.9216 1.46703 66.1205 0.785999H66.1706Z" fill="white"/>
<path fill-rule="evenodd" clip-rule="evenodd" d="M72.5747 2.60568C73.0286 2.34884 73.298 1.85735 73.2705 1.33661C73.2715 0.959227 73.0637 0.612242 72.7306 0.434895C72.3461 0.21683 71.9089 0.108979 71.4671 0.123192H70.7491H70.1924H69.5078C69.5579 0.746598 69.5579 1.40897 69.5579 2.34964C69.5579 3.29032 69.5412 4.10297 69.5078 4.79874H70.621C70.5765 4.05844 70.5765 3.46843 70.5765 3.01758H70.8548C71.4547 3.03733 72.0489 2.89505 72.5747 2.60568ZM71.1324 0.766495C71.8671 0.766495 72.2456 1.02254 72.2456 1.53462C72.2456 2.08567 71.7725 2.36397 70.8151 2.35841H70.5869C70.5869 2.05455 70.5744 1.7679 70.5626 1.49844C70.5522 1.25949 70.5423 1.03406 70.5423 0.822157C70.7369 0.785364 70.9344 0.76673 71.1324 0.766495Z" fill="white"/>
<path fill-rule="evenodd" clip-rule="evenodd" d="M77.3038 2.60557C77.7608 2.3512 78.0329 1.85874 78.0052 1.3365C78.0083 0.961504 77.8052 0.615101 77.4764 0.434784C77.0896 0.217331 76.6508 0.109559 76.2073 0.123081H75.4893H74.9327H74.248C74.2981 0.746487 74.2981 1.40886 74.2981 2.34953C74.2981 3.29021 74.2814 4.10286 74.248 4.79863H75.3613C75.3223 4.05833 75.3223 3.46832 75.3223 3.01747H75.5839C76.1838 3.03722 76.778 2.89494 77.3038 2.60557ZM75.8741 0.76591C76.6143 0.76591 76.9873 1.02195 76.9873 1.53404C76.9873 2.08508 76.503 2.36339 75.5568 2.35782H75.3286C75.3286 1.78451 75.3119 1.27243 75.284 0.821572C75.4786 0.784778 75.6761 0.766145 75.8741 0.76591Z" fill="white"/>
<path fill-rule="evenodd" clip-rule="evenodd" d="M84.998 4.19924C85.4903 3.71942 85.7588 3.05514 85.7383 2.36799C85.7626 1.72926 85.5112 1.1109 85.0481 0.670321C84.5714 0.233348 83.9409 0.00316734 83.2947 0.0302169C82.6096 0.0117325 81.9464 0.272983 81.4579 0.753813C80.9679 1.23518 80.6998 1.89841 80.7176 2.58507C80.7042 3.21591 80.9591 3.82282 81.419 4.25491C81.8895 4.70114 82.5185 4.94151 83.1667 4.92284C83.85 4.9398 84.5109 4.67867 84.998 4.19924ZM84.2011 1.25406C84.4934 1.59098 84.6449 2.02747 84.6241 2.47304H84.6519C84.6594 2.90745 84.5069 3.32943 84.2234 3.65863C83.987 3.95866 83.6257 4.13317 83.2437 4.13175C82.8448 4.13704 82.4639 3.96593 82.2028 3.66419C81.9105 3.32727 81.7591 2.89079 81.7798 2.44521C81.7635 2.01425 81.9062 1.59233 82.1806 1.25963C82.4164 0.958926 82.7781 0.78425 83.1602 0.786508C83.5592 0.78122 83.9401 0.952327 84.2011 1.25406Z" fill="white"/>
<path d="M91.0857 4.79456H90.1117C89.8084 4.23665 89.4444 3.71397 89.0263 3.23605C88.5017 2.62547 88.0669 1.94325 87.7349 1.20998H87.6681C87.7313 1.68053 87.7648 2.15459 87.7683 2.62934C87.7683 3.22492 87.7683 3.94295 87.824 4.79456H86.8555C86.8944 4.0487 86.9111 3.23605 86.9111 2.34547C86.9111 1.45489 86.9111 0.731292 86.8555 0.119019H88.0244C88.2793 0.666979 88.607 1.17809 88.9984 1.63857C89.4776 2.22192 89.8781 2.86567 90.1896 3.55332H90.2508C90.1922 3.0768 90.1606 2.59735 90.1562 2.11726C90.1562 1.47159 90.1562 0.803652 90.1005 0.119019H91.0857C91.0523 0.714594 91.0301 1.46045 91.0301 2.34547C91.0301 3.23048 91.0523 4.0654 91.0857 4.79456Z" fill="white"/>
</svg>
