<svg width="76" height="18" viewBox="0 0 76 18" fill="none" xmlns="http://www.w3.org/2000/svg">
<path d="M43.8887 15.9527C43.8887 16.1025 43.9636 16.1774 44.0385 16.1774C44.1134 16.1774 44.1883 16.1774 44.1883 16.1025L67.7803 0.748954C68.2297 0.449372 68.6042 0.299582 69.1285 0.299582H74.2962C75.1201 0.299582 75.6444 0.82385 75.6444 1.6477V11.5339C75.6444 12.7322 75.3448 13.4063 74.2962 14.0803L68.005 17.8251C67.9301 17.9 67.8552 17.9 67.7803 17.9C67.7055 17.9 67.6306 17.8251 67.6306 17.6004V6.06653C67.6306 5.91674 67.5557 5.84184 67.4808 5.84184C67.4059 5.84184 67.331 5.84184 67.331 5.91674L50.105 17.151C49.6557 17.4506 49.2063 17.5255 48.7569 17.5255H37.3728C36.549 17.5255 36.0247 17.0013 36.0247 16.1774V1.94728C36.0247 1.87239 35.9498 1.7226 35.8749 1.7226C35.8 1.7226 35.7251 1.72259 35.7251 1.79749L24.341 8.68787C24.1912 8.76276 24.1912 8.83766 24.1912 8.83766C24.1912 8.91255 24.1912 8.91255 24.2661 8.98745L32.3548 17.0762C32.4297 17.151 32.5046 17.3008 32.5046 17.3757C32.5046 17.4506 32.3548 17.5255 32.2799 17.5255H24.9402C24.341 17.5255 23.8916 17.4506 23.5921 17.151L18.649 12.208C18.5741 12.1331 18.5741 12.1331 18.4992 12.1331C18.4243 12.1331 18.4243 12.1331 18.3494 12.208L10.1109 17.151C9.58661 17.4506 9.28703 17.5255 8.76276 17.5255H1.34812C0.524268 17.5255 0 17.0013 0 16.1774V6.441C0 5.24268 0.299582 4.56862 1.34812 3.89456L7.63933 0.0748957C7.71423 2.84587e-07 7.78912 0 7.78912 0C7.86402 0 7.93891 0.0748958 7.93891 0.299582V13.2565C7.93891 13.4063 8.01381 13.4812 8.08871 13.4812C8.1636 13.4812 8.2385 13.4812 8.31339 13.4063L29.6586 0.524268C30.1829 0.224687 30.4824 0.149791 31.0816 0.149791H42.6155C43.4393 0.149791 43.9636 0.674059 43.9636 1.49791V15.9527H43.8887Z" fill="white"/>
</svg>
