<svg width="23" height="23" viewBox="0 0 23 23" fill="none" xmlns="http://www.w3.org/2000/svg">
<path d="M16.7335 8.43956L11.724 5.80679L2.06674 0.730482C1.55466 0.457742 0.998047 0.61916 0.998047 1.20917V21.8985C0.998047 22.3437 1.38211 22.533 1.8441 22.2881L11.7295 17.0893L16.739 14.4565L21.5537 11.9295C22.1104 11.629 22.0658 11.2226 21.5871 10.9888C21.1085 10.7551 16.7335 8.43956 16.7335 8.43956Z" fill="#CBCBCA"/>
<path d="M0.998047 0.248047V11.4527V22.6517L13.4049 11.4527L0.998047 0.248047Z" fill="white"/>
<path d="M16.7335 8.44069L11.7295 5.80792L0.998047 0.169434V0.247359L13.4049 11.452L16.7335 8.44069Z" fill="#CBCBCA"/>
<path d="M0.998047 22.6514V22.7349L11.7295 17.0909L16.7335 14.4581L13.4049 11.4524L0.998047 22.6514Z" fill="#CBCBCA"/>
<path d="M16.7348 8.44189L13.4062 11.4532L16.7348 14.4589L22.4568 11.4532L16.7348 8.44189Z" fill="white"/>
</svg>
